<svg xmlns="http://www.w3.org/2000/svg" width="376.315" height="110.288" viewBox="0 0 376.315 110.288">
  <g id="Group_12" data-name="Group 12" transform="translate(-69.771 -600)">
    <g id="Group_1" data-name="Group 1" transform="translate(-754.774 69.042)">
      <rect id="Rectangle_4" data-name="Rectangle 4" width="31.194" height="31.194" transform="translate(868.659 553.016) rotate(45)" fill="#fff" opacity="0.6"/>
      <path id="Rectangle_11" data-name="Rectangle 11" d="M0,0H31.194V31.194H4a4,4,0,0,1-4-4Z" transform="translate(846.602 575.073) rotate(45)" fill="#fff" opacity="0.8"/>
      <rect id="Rectangle_7" data-name="Rectangle 7" width="31.194" height="31.194" transform="translate(912.774 553.016) rotate(45)" fill="#fff" opacity="0.6"/>
      <rect id="Rectangle_9" data-name="Rectangle 9" width="31.194" height="31.194" transform="translate(890.716 575.073) rotate(45)" fill="#fff" opacity="0.8"/>
      <path id="Rectangle_13" data-name="Rectangle 13" d="M0,0H31.194V27.194a4,4,0,0,1-4,4H0Z" transform="translate(912.774 597.131) rotate(45)" fill="#fff"/>
      <path id="Rectangle_14" data-name="Rectangle 14" d="M0,0H31.194V27.194a4,4,0,0,1-4,4H0Z" transform="translate(868.659 597.131) rotate(45)" fill="#fff"/>
      <path id="Rectangle_15" data-name="Rectangle 15" d="M0,0H31.194V27.194a4,4,0,0,1-4,4H0Z" transform="translate(956.889 597.131) rotate(45)" fill="#fff"/>
      <rect id="Rectangle_10" data-name="Rectangle 10" width="31.194" height="31.194" transform="translate(934.831 575.073) rotate(45)" fill="#fff" opacity="0.8"/>
      <path id="Rectangle_12" data-name="Rectangle 12" d="M0,0H27.194a4,4,0,0,1,4,4V31.194H0Z" transform="translate(978.946 575.073) rotate(45)" fill="#fff" opacity="0.8"/>
      <rect id="Rectangle_8" data-name="Rectangle 8" width="31.194" height="31.194" transform="translate(956.889 553.016) rotate(45)" fill="#fff" opacity="0.6"/>
      <path id="Rectangle_5" data-name="Rectangle 5" d="M3,0H31.194V31.194H0V3A3,3,0,0,1,3,0Z" transform="translate(890.716 530.958) rotate(45)" fill="#fff" opacity="0.4"/>
      <path id="Rectangle_6" data-name="Rectangle 6" d="M3,0H31.194V31.194H0V3A3,3,0,0,1,3,0Z" transform="translate(934.831 530.958) rotate(45)" fill="#fff" opacity="0.4"/>
    </g>
    <path id="Path_19" data-name="Path 19" d="M-65.205,0h12.04L-63.6-17.99a16.149,16.149,0,0,0,9.03-14.21A16.76,16.76,0,0,0-71.365-49h-19.6V0h11.2V-16.1h5.32Zm-14.56-38.5h8.4c3.08,0,5.6,2.73,5.6,6.3s-2.52,6.3-5.6,6.3h-8.4Zm55.16,3.5v3.29c-2.31-2.66-5.74-4.27-10.43-4.27-9.17,0-16.73,8.05-16.73,18.48S-44.205.98-35.035.98c4.69,0,8.12-1.61,10.43-4.27V0h10.5V-35Zm-8.33,26.04c-4.83,0-8.33-3.29-8.33-8.54s3.5-8.54,8.33-8.54,8.33,3.29,8.33,8.54S-28.105-8.96-32.935-8.96Zm47.46-27.02c-4.69,0-8.12,1.61-10.43,4.27V-35H-6.4V14H4.1V-3.29C6.405-.63,9.835.98,14.525.98c9.17,0,16.73-8.05,16.73-18.48S23.7-35.98,14.525-35.98Zm-2.1,27.02C7.6-8.96,4.1-12.25,4.1-17.5s3.5-8.54,8.33-8.54,8.33,3.29,8.33,8.54S17.255-8.96,12.425-8.96Zm30.03-29.12a6.364,6.364,0,0,0,6.3-6.3,6.364,6.364,0,0,0-6.3-6.3,6.364,6.364,0,0,0-6.3,6.3A6.364,6.364,0,0,0,42.455-38.08ZM37.205,0h10.5V-35h-10.5Zm43.61-49v17.29c-2.31-2.66-5.74-4.27-10.43-4.27-9.17,0-16.73,8.05-16.73,18.48S61.215.98,70.385.98c4.69,0,8.12-1.61,10.43-4.27V0h10.5V-49ZM72.485-8.96c-4.83,0-8.33-3.29-8.33-8.54s3.5-8.54,8.33-8.54,8.33,3.29,8.33,8.54S77.315-8.96,72.485-8.96Z" transform="translate(354.771 691)" fill="#fff"/>
  </g>
</svg>
